<svg width="251" height="265" viewBox="0 0 251 265" fill="none" xmlns="http://www.w3.org/2000/svg">
<path d="M30.5539 178.855C-22.8598 149.695 -3.21089 61.5712 65.9274 40.367C136.325 22.4556 152.847 108.209 210.695 91.1298C168.495 132.385 137.094 52.1331 69.0122 71.9041C37.29 81.8596 -5.06456 123.835 30.5469 178.848L30.5539 178.855ZM52.4131 134.328C75.2098 105.084 109.254 108.685 132.359 118.808C168.67 138.243 214.808 146.703 225.287 93.6327C168.949 163.055 133.639 62.2983 75.5385 87.9139C39.5704 103.525 18.6904 151.897 45.9568 184.595C45.9568 184.595 34.1353 159.049 52.4131 134.321V134.328ZM102.217 148.059C135.758 141.704 158.331 176.212 200.665 166.292C238.871 157.854 252.099 115.955 233.905 91.1368C233.905 91.1368 237.409 133.566 204.778 145.353C152.84 159.643 132.45 125.352 101.028 127.414C59.548 131.406 50.3986 161.251 55.3091 187.846C66.1653 156.308 92.1236 150.471 102.217 148.059ZM4.18979 190.23C21.2226 217.271 69.271 223.962 76.7277 258.331C77.7699 263.147 82.6944 266.182 87.3461 264.56C104.61 258.533 89.9412 234.239 153.91 231.023C209.702 227.472 241.389 208.05 250.868 164.579C251.994 159.406 245.67 156.05 242.012 159.881C224.776 177.897 189.627 193.984 156.407 176.38C113.409 153.596 85.5973 162.167 75.3497 181.798C67.6692 200.297 37.9825 204.086 12.7586 183.707C7.68028 179.603 0.720284 184.707 4.19679 190.237L4.18979 190.23ZM150.119 24.511C150.119 20.0297 146.482 16.3943 141.998 16.3943C137.514 16.3943 133.877 20.0297 133.877 24.511C133.877 28.9924 137.514 32.6278 141.998 32.6278C146.482 32.6278 150.119 28.9924 150.119 24.511ZM206.988 16.3943C206.988 7.34072 199.643 0 190.585 0C181.526 0 174.182 7.34072 174.182 16.3943C174.182 25.4478 181.526 32.7886 190.585 32.7886C199.643 32.7886 206.988 25.4478 206.988 16.3943ZM228.749 51.5459C228.749 45.5405 223.881 40.6746 217.872 40.6746C211.864 40.6746 206.995 45.5405 206.995 51.5459C206.995 57.5513 211.864 62.4171 217.872 62.4171C223.881 62.4171 228.749 57.5513 228.749 51.5459Z" fill="#0C7BDC"/>
</svg>
