<svg width="648" height="90" viewBox="0 0 648 90" fill="none" xmlns="http://www.w3.org/2000/svg">
<path d="M60.0105 56.2933C62.6725 59.7588 64.007 63.7134 64.007 68.1641C64.007 74.7318 61.7432 79.8741 57.2227 83.5911C52.7022 87.3082 46.3511 89.1737 38.1834 89.1737H0V12.0383H36.9816C44.8559 12.0383 51.0393 13.792 55.5249 17.2925C60.0105 20.7929 62.2532 25.7187 62.2532 32.0628C62.2532 36.5833 61.0655 40.3632 58.6969 43.3885C56.3284 46.4139 53.1703 48.475 49.2297 49.5719C53.7502 50.592 57.3415 52.8348 60.0035 56.3003L60.0105 56.2933ZM21.4428 42.6689H32.2725C37.6664 42.6689 40.3703 40.4471 40.3703 35.9964C40.3703 31.5457 37.6733 29.1003 32.2725 29.1003H21.4428V42.6689ZM42.0122 65.0968C42.0122 62.7632 41.2995 60.9746 39.8812 59.7379C38.4559 58.5012 36.4367 57.8794 33.8096 57.8794H21.4428V71.8811H33.9144C39.3083 71.8811 42.0122 69.6243 42.0122 65.0968Z" fill="#005AB5"/>
<path d="M101.422 30.309C104.853 28.2689 108.535 27.2488 112.476 27.2488V50.1169H106.46C101.793 50.1169 98.3271 51.0322 96.0634 52.8558C93.7996 54.6793 92.6747 57.8514 92.6747 62.3719V89.1806H71.2319V27.7938H83.9271C88.7621 27.7938 92.6817 31.7134 92.6817 36.5483V38.6304C95.0852 35.13 98.0057 32.3562 101.436 30.316L101.422 30.309Z" fill="#005AB5"/>
<path d="M117.89 41.7957C120.189 37.0586 123.326 33.4114 127.301 30.8542C131.277 28.304 135.706 27.0254 140.597 27.0254C144.824 27.0254 148.478 27.8638 151.539 29.5407C154.599 31.2175 156.975 33.4813 158.651 36.325V27.7939H180.094V89.1738H158.651V80.6428C156.975 83.4865 154.585 85.7503 151.483 87.4271C148.381 89.104 144.754 89.9424 140.597 89.9424C135.706 89.9424 131.277 88.6638 127.301 86.1136C123.326 83.5634 120.189 79.8952 117.89 75.1162C115.591 70.3372 114.445 64.7756 114.445 58.4315C114.445 52.0874 115.591 46.5468 117.89 41.8027V41.7957ZM155.416 49.1249C153.265 46.8682 150.616 45.7363 147.486 45.7363C144.356 45.7363 141.617 46.8472 139.5 49.076C137.383 51.3049 136.328 54.421 136.328 58.4315C136.328 62.442 137.383 65.4883 139.5 67.7869C141.617 70.0856 144.279 71.2315 147.486 71.2315C150.693 71.2315 153.265 70.0996 155.416 67.8428C157.568 65.5861 158.644 62.449 158.644 58.4315C158.644 54.414 157.568 51.3957 155.416 49.1319V49.1249Z" fill="#005AB5"/>
<path d="M191.853 18.9832C189.555 16.9011 188.409 14.2949 188.409 11.1578C188.409 8.02071 189.555 5.28884 191.853 3.17181C194.152 1.05478 197.198 -0.000244141 200.992 -0.000244141C204.786 -0.000244141 207.72 1.05478 210.019 3.17181C212.318 5.28884 213.464 7.95084 213.464 11.1578C213.464 14.3648 212.318 16.9011 210.019 18.9832C207.72 21.0583 204.716 22.0993 200.992 22.0993C197.268 22.0993 194.152 21.0583 191.853 18.9832ZM211.605 36.5412V89.1665H190.162V27.7936H202.858C207.693 27.7936 211.612 31.7133 211.612 36.5482L211.605 36.5412Z" fill="#005AB5"/>
<path d="M278.672 34.2986C282.83 39.0007 284.912 45.3658 284.912 53.3937V89.1736H263.469V56.2374C263.469 52.737 262.554 49.9841 260.73 47.9789C258.907 45.9737 256.461 44.9675 253.401 44.9675C250.341 44.9675 247.672 45.9737 245.848 47.9789C244.024 49.9841 243.116 52.737 243.116 56.2374V89.1736H221.673V27.7938H234.369C239.203 27.7938 243.123 31.7134 243.123 36.5483C245.017 33.7745 247.574 31.5317 250.781 29.82C253.988 28.1082 257.677 27.2488 261.834 27.2488C268.912 27.2488 274.529 29.6034 278.686 34.3055L278.672 34.2986Z" fill="#005AB5"/>
<path d="M385.237 27.7937L369.593 89.1736H345.523L336.992 51.9754L328.133 89.1736H304.175L288.636 27.7937H309.974L316.87 68.4924L325.953 27.7937H348.933L358.344 68.6042L365.128 27.7937H385.258H385.237Z" fill="#005AB5"/>
<path d="M389.121 41.7957C391.42 37.0586 394.557 33.4114 398.533 30.8542C402.508 28.304 406.938 27.0254 411.829 27.0254C416.056 27.0254 419.71 27.8638 422.77 29.5407C425.83 31.2175 428.206 33.4813 429.883 36.325V27.7939H442.375C447.322 27.7939 451.326 31.8044 451.326 36.7442V89.1738H429.883V80.6428C428.206 83.4865 425.816 85.7503 422.714 87.4271C419.612 89.104 415.986 89.9424 411.829 89.9424C406.938 89.9424 402.508 88.6638 398.533 86.1136C394.557 83.5634 391.42 79.8952 389.121 75.1162C386.823 70.3372 385.677 64.7756 385.677 58.4315C385.677 52.0874 386.823 46.5468 389.121 41.8027V41.7957ZM426.648 49.1249C424.496 46.8682 421.848 45.7363 418.718 45.7363C415.588 45.7363 412.842 46.8472 410.732 49.076C408.615 51.3049 407.56 54.421 407.56 58.4315C407.56 62.442 408.615 65.4883 410.732 67.7869C412.849 70.0856 415.511 71.2315 418.718 71.2315C421.925 71.2315 424.496 70.0996 426.648 67.8428C428.8 65.5861 429.876 62.449 429.876 58.4315C429.876 54.414 428.8 51.3957 426.648 49.1319V49.1249Z" fill="#005AB5"/>
<path d="M490.816 68.9326L502.302 27.7937H525.17L504.056 89.1736H477.359L456.245 27.7937H479.113L490.823 68.9326H490.816Z" fill="#005AB5"/>
<path d="M588.52 62.8051H547.927C548.143 66.1589 549.072 68.6602 550.714 70.3021C552.356 71.944 554.452 72.7615 557.003 72.7615C560.573 72.7615 563.13 71.1615 564.66 67.9475H587.528C586.578 72.1816 584.74 75.9545 582.002 79.2733C579.263 82.592 575.818 85.1981 571.661 87.0986C567.504 88.999 562.906 89.9422 557.876 89.9422C551.818 89.9422 546.445 88.6636 541.736 86.1134C537.034 83.5632 533.345 79.916 530.683 75.1719C528.021 70.4278 526.693 64.8523 526.693 58.4313C526.693 52.0104 528.007 46.4488 530.634 41.7466C533.261 37.0445 536.922 33.4113 541.631 30.861C546.334 28.3108 551.755 27.0322 557.876 27.0322C563.996 27.0322 569.292 28.2759 573.96 30.7493C578.627 33.2296 582.274 36.7859 584.901 41.4182C587.528 46.0506 588.842 51.5003 588.842 57.7746C588.842 59.4514 588.73 61.1283 588.513 62.8051H588.52ZM566.966 52.4086C566.966 49.7816 566.092 47.7204 564.339 46.2252C562.592 44.73 560.398 43.9824 557.771 43.9824C555.144 43.9824 552.992 44.6951 551.315 46.1134C549.638 47.5388 548.541 49.6348 548.031 52.4017H566.959L566.966 52.4086Z" fill="#005AB5"/>
<path d="M606.735 87.1475C602.396 85.289 598.966 82.7388 596.45 79.4898C593.935 76.2479 592.531 72.5798 592.237 68.4925H613.023C613.317 70.4628 614.225 71.9929 615.762 73.0899C617.292 74.1868 619.193 74.7318 621.45 74.7318C623.203 74.7318 624.587 74.3685 625.607 73.6348C626.627 72.9082 627.137 71.958 627.137 70.7912C627.137 69.261 626.298 68.1292 624.622 67.4025C622.945 66.6759 620.171 65.8724 616.307 64.999C611.933 64.1257 608.279 63.1405 605.366 62.0436C602.445 60.9466 599.909 59.165 597.764 56.6846C595.612 54.2043 594.536 50.8506 594.536 46.6165C594.536 42.9693 595.521 39.6715 597.491 36.7161C599.462 33.7606 602.361 31.413 606.19 29.6593C610.019 27.9056 614.63 27.0322 620.031 27.0322C628.052 27.0322 634.361 29.0025 638.959 32.9431C643.556 36.8838 646.218 42.061 646.945 48.482H627.577C627.214 46.5117 626.354 45.0025 625.006 43.9405C623.657 42.8855 621.848 42.3545 619.591 42.3545C617.844 42.3545 616.51 42.6829 615.594 43.3396C614.679 43.9964 614.225 44.9117 614.225 46.0785C614.225 47.5388 615.064 48.6497 616.74 49.4182C618.417 50.1868 621.114 50.9693 624.838 51.7728C629.289 52.723 632.992 53.7781 635.94 54.9449C638.896 56.1117 641.481 57.9912 643.71 60.5763C645.932 63.1685 647.05 66.6899 647.05 71.1335C647.05 74.7108 646.008 77.9178 643.933 80.7615C641.851 83.6051 638.903 85.8479 635.074 87.4898C631.245 89.1318 626.739 89.9492 621.561 89.9492C616.014 89.9492 611.074 89.02 606.735 87.1615V87.1475Z" fill="#005AB5"/>
</svg>
