<svg width="32" height="32" viewBox="0 0 32 32" fill="none" xmlns="http://www.w3.org/2000/svg">
<path d="M16.1801 17.1702C16.0751 17.1552 15.9401 17.1552 15.8201 17.1702C13.1801 17.0802 11.0801 14.9202 11.0801 12.2652C11.0801 9.5502 13.2701 7.34521 16.0001 7.34521C18.715 7.34521 20.92 9.5502 20.92 12.2652C20.905 14.9202 18.82 17.0802 16.1801 17.1702Z" stroke="white" stroke-width="2" stroke-linecap="round" stroke-linejoin="round"/>
<path d="M26.11 27.0698C23.44 29.5148 19.9001 30.9998 16.0001 30.9998C12.1001 30.9998 8.56012 29.5148 5.89014 27.0698C6.04014 25.6598 6.94013 24.2798 8.54512 23.1998C12.6551 20.4698 19.3751 20.4698 23.455 23.1998C25.06 24.2798 25.96 25.6598 26.11 27.0698Z" stroke="white" stroke-width="2" stroke-linecap="round" stroke-linejoin="round"/>
<path d="M15.9999 30.9999C24.2842 30.9999 30.9999 24.2842 30.9999 15.9999C30.9999 7.7157 24.2842 1 15.9999 1C7.7157 1 1 7.7157 1 15.9999C1 24.2842 7.7157 30.9999 15.9999 30.9999Z" stroke="white" stroke-width="2" stroke-linecap="round" stroke-linejoin="round"/>
</svg>
