<svg width="32" height="29" viewBox="0 0 32 29" fill="none" xmlns="http://www.w3.org/2000/svg">
<path d="M1 7.76117V22.5709C1 25.4628 3.05479 26.6501 5.55099 25.2193L9.12785 23.1797C9.90411 22.7383 11.1979 22.6927 12.0046 23.1036L19.9954 27.1067C20.8021 27.5024 22.0959 27.472 22.8721 27.0306L29.4627 23.2558C30.2998 22.7688 31 21.5816 31 20.6074V5.79769C31 2.90576 28.9452 1.71855 26.449 3.14929L22.8721 5.18887C22.0959 5.63027 20.8021 5.67593 19.9954 5.26497L12.0046 1.27715C11.1979 0.881408 9.90411 0.911849 9.12785 1.35325L2.53729 5.12798C1.68493 5.61505 1 6.80226 1 7.76117Z" stroke="white" stroke-width="2" stroke-linecap="round" stroke-linejoin="round"/>
<path d="M10.5435 2.00781V21.7947" stroke="white" stroke-width="2" stroke-linecap="round" stroke-linejoin="round"/>
<path d="M21.4565 5.99561V26.3609" stroke="white" stroke-width="2" stroke-linecap="round" stroke-linejoin="round"/>
</svg>
