<svg width="190" height="190" viewBox="0 0 190 190" fill="none" xmlns="http://www.w3.org/2000/svg">
<rect x="2" y="2" width="186" height="186" rx="13" stroke="white" stroke-width="4"/>
<path d="M95 126.667C77.1541 126.667 62.6296 112.142 62.6296 94.2964C62.6296 76.4505 77.1541 61.926 95 61.926C112.846 61.926 127.37 76.4505 127.37 94.2964C127.37 112.142 112.846 126.667 95 126.667ZM95 70.3705C81.8267 70.3705 71.0741 81.1231 71.0741 94.2964C71.0741 107.47 81.8267 118.222 95 118.222C108.173 118.222 118.926 107.47 118.926 94.2964C118.926 81.1231 108.173 70.3705 95 70.3705Z" fill="white"/>
<path d="M143.359 182.963C141.051 182.963 139.137 181.049 139.137 178.741C139.137 159.319 119.321 143.556 95.0009 143.556C70.6809 143.556 50.8646 159.319 50.8646 178.741C50.8646 181.049 48.9505 182.963 46.6424 182.963C44.3342 182.963 42.4202 181.049 42.4202 178.741C42.4202 154.702 66.0083 135.111 95.0009 135.111C123.993 135.111 147.582 154.702 147.582 178.741C147.582 181.049 145.668 182.963 143.359 182.963Z" fill="white"/>
</svg>
