<svg width="93" height="99" viewBox="0 0 93 99" fill="none" xmlns="http://www.w3.org/2000/svg">
<path d="M11.3207 66.8175C-8.46996 55.9237 -1.18969 23.0021 24.4273 15.0805C50.5108 8.38908 56.6325 40.4253 78.0664 34.0447C62.4303 49.4569 50.7959 19.4761 25.5703 26.8623C13.8166 30.5815 -1.87651 46.2627 11.3182 66.8149L11.3207 66.8175ZM19.42 50.183C27.8666 39.2579 40.4807 40.6029 49.0413 44.3848C62.4951 51.6456 79.5904 54.8059 83.4729 34.9798C62.5988 60.9149 49.5156 23.2737 27.9884 32.8433C14.6615 38.6754 6.92512 56.7464 17.0278 68.9618C17.0278 68.9618 12.6477 59.4183 19.42 50.1804V50.183ZM37.8734 55.3126C50.3009 52.9384 58.6645 65.8303 74.3498 62.1241C88.5061 58.9717 93.4071 43.3192 86.6659 34.0473C86.6659 34.0473 87.9644 49.8983 75.8738 54.3018C56.63 59.6403 49.075 46.8295 37.4328 47.5999C22.0636 49.0913 18.6736 60.241 20.493 70.1763C24.5154 58.3945 34.1334 56.2136 37.8734 55.3126ZM1.55239 71.0669C7.86334 81.1693 25.6662 83.6688 28.429 96.5084C28.8152 98.3079 30.6398 99.4414 32.3633 98.8355C38.7598 96.5841 33.3248 87.5082 57.0265 86.3067C77.6984 84.9799 89.4391 77.7244 92.9509 61.4842C93.3682 59.5515 91.0253 58.2979 89.6698 59.7291C83.2837 66.4597 70.26 72.4694 57.9518 65.8929C42.0202 57.3811 31.7153 60.5832 27.9184 67.9171C25.0726 74.8279 14.0732 76.2435 4.7273 68.6301C2.84568 67.097 0.266878 69.0036 1.55498 71.0695L1.55239 71.0669ZM55.6218 9.15695C55.6218 7.48279 54.274 6.12466 52.6127 6.12466C50.9514 6.12466 49.6037 7.48279 49.6037 9.15695C49.6037 10.8311 50.9514 12.1892 52.6127 12.1892C54.274 12.1892 55.6218 10.8311 55.6218 9.15695ZM76.6928 6.12466C76.6928 2.74238 73.9714 0 70.6151 0C67.2588 0 64.5374 2.74238 64.5374 6.12466C64.5374 9.50693 67.2588 12.2493 70.6151 12.2493C73.9714 12.2493 76.6928 9.50693 76.6928 6.12466ZM84.7558 19.2568C84.7558 17.0132 82.9519 15.1954 80.7256 15.1954C78.4993 15.1954 76.6954 17.0132 76.6954 19.2568C76.6954 21.5003 78.4993 23.3181 80.7256 23.3181C82.9519 23.3181 84.7558 21.5003 84.7558 19.2568Z" fill="white"/>
</svg>
