<svg width="32" height="31" viewBox="0 0 32 31" fill="none" xmlns="http://www.w3.org/2000/svg">
<path d="M15.9924 19.6488C18.4764 19.6488 20.4901 17.6351 20.4901 15.1511C20.4901 12.667 18.4764 10.6533 15.9924 10.6533C13.5083 10.6533 11.4946 12.667 11.4946 15.1511C11.4946 17.6351 13.5083 19.6488 15.9924 19.6488Z" stroke="white" stroke-width="2" stroke-miterlimit="10" stroke-linecap="round" stroke-linejoin="round"/>
<path d="M1 16.4706V13.8319C1 12.2727 2.27436 10.9834 3.84858 10.9834C6.56222 10.9834 7.67166 9.06432 6.30735 6.7105C5.52774 5.36117 5.9925 3.60705 7.35682 2.82744L9.95052 1.34318C11.1349 0.638533 12.6642 1.05832 13.3688 2.24273L13.5337 2.52759C14.8831 4.88141 17.1019 4.88141 18.4663 2.52759L18.6312 2.24273C19.3358 1.05832 20.8651 0.638533 22.0495 1.34318L24.6432 2.82744C26.0075 3.60705 26.4723 5.36117 25.6927 6.7105C24.3283 9.06432 25.4378 10.9834 28.1514 10.9834C29.7106 10.9834 31 12.2577 31 13.8319V16.4706C31 18.0298 29.7256 19.3192 28.1514 19.3192C25.4378 19.3192 24.3283 21.2382 25.6927 23.5921C26.4723 24.9564 26.0075 26.6955 24.6432 27.4751L22.0495 28.9594C20.8651 29.664 19.3358 29.2442 18.6312 28.0598L18.4663 27.775C17.1169 25.4211 14.8981 25.4211 13.5337 27.775L13.3688 28.0598C12.6642 29.2442 11.1349 29.664 9.95052 28.9594L7.35682 27.4751C5.9925 26.6955 5.52774 24.9414 6.30735 23.5921C7.67166 21.2382 6.56222 19.3192 3.84858 19.3192C2.27436 19.3192 1 18.0298 1 16.4706Z" stroke="white" stroke-width="2" stroke-miterlimit="10" stroke-linecap="round" stroke-linejoin="round"/>
</svg>
