<svg width="30" height="25" viewBox="0 0 30 25" fill="none" xmlns="http://www.w3.org/2000/svg">
<path d="M15.7803 24.0168C14.6771 24.0168 13.4621 23.6258 12.2472 22.8577L8.16944 20.3021C7.89014 20.1346 7.56895 20.0368 7.24776 20.0368H5.23682C1.85733 20.0368 0 18.1795 0 14.8V9.21403C0 5.83454 1.85733 3.97721 5.23682 3.97721H7.23379C7.55499 3.97721 7.87618 3.87946 8.15548 3.71188L12.2332 1.15631C14.2721 -0.11449 16.2551 -0.351892 17.8192 0.513929C19.3832 1.37975 20.2351 3.18122 20.2351 5.59714V18.4029C20.2351 20.8049 19.3693 22.6203 17.8192 23.4861C17.2047 23.8492 16.5065 24.0168 15.7803 24.0168ZM5.23682 6.08591C3.03037 6.08591 2.09473 7.02155 2.09473 9.228V14.8139C2.09473 17.0204 3.03037 17.956 5.23682 17.956H7.23379C7.95997 17.956 8.65821 18.1515 9.27266 18.5426L13.3504 21.0981C14.691 21.936 15.9618 22.1595 16.8137 21.6846C17.6655 21.2098 18.1543 20.0228 18.1543 18.4448V5.6111C18.1543 4.01911 17.6655 2.83209 16.8137 2.37125C15.9618 1.89645 14.691 2.10592 13.3504 2.95778L9.2587 5.49938C8.65821 5.8904 7.946 6.08591 7.23379 6.08591H5.23682Z" fill="#1E1E1E"/>
</svg>
