<svg width="30" height="25" viewBox="0 0 30 25" fill="none" xmlns="http://www.w3.org/2000/svg">
<path d="M15.7803 24.0334C14.6771 24.0334 13.4621 23.6424 12.2472 22.8743L8.16944 20.3187C7.89014 20.1512 7.56895 20.0534 7.24776 20.0534H5.23682C1.85733 20.0534 0 18.1961 0 14.8166V9.23063C0 5.85114 1.85733 3.99381 5.23682 3.99381H7.23379C7.55499 3.99381 7.87618 3.89606 8.15548 3.72848L12.2332 1.17291C14.2721 -0.0978887 16.2551 -0.335291 17.8192 0.53053C19.3832 1.39635 20.2351 3.19782 20.2351 5.61374V18.4195C20.2351 20.8215 19.3693 22.6369 17.8192 23.5027C17.2047 23.8658 16.5065 24.0334 15.7803 24.0334ZM5.23682 6.10251C3.03037 6.10251 2.09473 7.03815 2.09473 9.2446V14.8305C2.09473 17.037 3.03037 17.9726 5.23682 17.9726H7.23379C7.95997 17.9726 8.65821 18.1681 9.27266 18.5592L13.3504 21.1147C14.691 21.9526 15.9618 22.1761 16.8137 21.7013C17.6655 21.2264 18.1543 20.0394 18.1543 18.4614V5.6277C18.1543 4.03571 17.6655 2.8487 16.8137 2.38786C15.9618 1.91305 14.691 2.12252 13.3504 2.97438L9.2587 5.51598C8.65821 5.907 7.946 6.10251 7.23379 6.10251H5.23682Z" fill="white"/>
<path d="M23.3913 18.6708C23.1678 18.6708 22.9583 18.601 22.7628 18.4613C22.302 18.1122 22.2042 17.4559 22.5534 16.995C24.7458 14.0764 24.7458 9.99863 22.5534 7.07997C22.2042 6.61913 22.302 5.96278 22.7628 5.61366C23.2237 5.26454 23.88 5.3623 24.2291 5.82314C26.9663 9.48193 26.9663 14.5931 24.2291 18.2519C24.0197 18.5312 23.7124 18.6708 23.3913 18.6708Z" fill="white"/>
<path d="M25.9467 22.162C25.7232 22.162 25.5138 22.0922 25.3183 21.9525C24.8574 21.6034 24.7597 20.9471 25.1088 20.4862C28.8374 15.5147 28.8374 8.56025 25.1088 3.58876C24.7597 3.12792 24.8574 2.47157 25.3183 2.12245C25.7791 1.77333 26.4354 1.87108 26.7846 2.33192C31.0718 8.04355 31.0718 16.0314 26.7846 21.7431C26.5891 22.0224 26.2679 22.162 25.9467 22.162Z" fill="white"/>
</svg>
