<svg width="30" height="25" viewBox="0 0 30 25" fill="none" xmlns="http://www.w3.org/2000/svg">
<path d="M15.7803 24.05C14.6771 24.05 13.4621 23.659 12.2472 22.8909L8.16944 20.3353C7.89014 20.1678 7.56895 20.07 7.24776 20.07H5.23682C1.85733 20.07 0 18.2127 0 14.8332V9.24724C0 5.86774 1.85733 4.01042 5.23682 4.01042H7.23379C7.55499 4.01042 7.87618 3.91266 8.15548 3.74508L12.2332 1.18951C14.2721 -0.0812871 16.2551 -0.318689 17.8192 0.547132C19.3832 1.41295 20.2351 3.21442 20.2351 5.63034V18.4361C20.2351 20.8381 19.3693 22.6535 17.8192 23.5193C17.2047 23.8824 16.5065 24.05 15.7803 24.05ZM5.23682 6.11911C3.03037 6.11911 2.09473 7.05475 2.09473 9.2612V14.8471C2.09473 17.0536 3.03037 17.9892 5.23682 17.9892H7.23379C7.95997 17.9892 8.65821 18.1847 9.27266 18.5758L13.3504 21.1313C14.691 21.9692 15.9618 22.1927 16.8137 21.7179C17.6655 21.243 18.1543 20.056 18.1543 18.478V5.6443C18.1543 4.05231 17.6655 2.8653 16.8137 2.40446C15.9618 1.92965 14.691 2.13913 13.3504 2.99098L9.2587 5.53258C8.65821 5.9236 7.946 6.11911 7.23379 6.11911H5.23682Z" fill="#1E1E1E"/>
<path d="M23.3913 18.6874C23.1678 18.6874 22.9583 18.6176 22.7628 18.4779C22.302 18.1288 22.2042 17.4725 22.5534 17.0116C24.7458 14.093 24.7458 10.0152 22.5534 7.09657C22.2042 6.63573 22.302 5.97939 22.7628 5.63026C23.2237 5.28114 23.88 5.3789 24.2291 5.83974C26.9663 9.49853 26.9663 14.6097 24.2291 18.2685C24.0197 18.5478 23.7124 18.6874 23.3913 18.6874Z" fill="#1E1E1E"/>
<path d="M25.9467 22.1786C25.7232 22.1786 25.5138 22.1088 25.3183 21.9691C24.8574 21.62 24.7597 20.9637 25.1088 20.5028C28.8374 15.5313 28.8374 8.57685 25.1088 3.60536C24.7597 3.14452 24.8574 2.48817 25.3183 2.13905C25.7791 1.78993 26.4354 1.88769 26.7846 2.34853C31.0718 8.06015 31.0718 16.048 26.7846 21.7597C26.5891 22.039 26.2679 22.1786 25.9467 22.1786Z" fill="#1E1E1E"/>
</svg>
